<svg xmlns="http://www.w3.org/2000/svg" width="800" height="800" viewBox="0 0 611.962 611.962" xml:space="preserve"><path d="m372.8 165.581-50.3 65.9 32.2-76.9c.8-4 4-6.3 6.3-6.3.8 0 1.5.8 3.1 1.5l4.7 2.3 4.7 2.3c4.1 2.6 3.3 6.4-.7 11.2m-68.2 72.2 14.1-110.7c1.5-7.8-.8-13.3-6.3-13.3h-15.7c-5.5 0-7.8 4.7-6.3 13.3zm19.6 120c4.7 11 6.3 18.101 6.3 28.2v104.401c0 4-3.1 7.8-7.8 7.8h-40.8c-4.7 0-7.8-3.101-7.8-7.8v-25.901H56.6v25.901c0 4-3.1 7.8-7.8 7.8h-41c-4.7 0-7.8-3.101-7.8-7.8V385.981c0-10.3 1.5-18.1 6.3-28.2l51-106.7c5.5-12.6 21.2-22.7 35.3-22.7H237c14.1 0 29.9 10.3 36.2 22.7zm-278.7-4.6H284l-34.5-73.7c-7.1-14.1-13.3-17.3-28.2-17.3H102.8c-11 1.5-16.5 5.5-21.9 17.3zm33 53.3c0-14.1-11.8-25.1-25.9-25.1s-25.1 11-25.1 25.1 11 25.9 25.1 25.9 25.9-11.7 25.9-25.9m224.4 0c0-14.1-11.8-25.1-25.9-25.1s-25.1 11-25.1 25.1 11 25.9 25.1 25.9c14.1.1 25.9-11.7 25.9-25.9m-15.6-168-32.2-76.9c-1.5-4-4-6.3-6.3-6.3h-2.3c-.8 0-.8.8-1.5.8l-4.7 2.3-4 3.1c-4 2.3-3.1 6.3.8 11zm322.4 150.7-23.601 88.7-3.1 11.8c-.8 4-5.5 6.3-9.4 5.5l-39.199-10.3c-4-.801-6.301-5.5-5.5-9.4l3.1-11.8 4-12.601-193.9-51.8v-14.899c0-6.301-.8-13.301-2.3-19.601 10.3-.8 19.601-7.8 22.7-18.899 4-13.301-4.7-27.4-18.1-31.4-8.601-1.5-17.301.8-23.601 6.3l-18.1-37.7c.8-.8 1.5-2.3 2.3-3.1l76.9-89.5c7.1-8.6 18.899-13.3 29.899-14.1 4 0 7.101 0 10.3.8l137.4 35.3c14.1 4 26.7 18.1 29 31.4l21.9 116.2c2.502 11.8 1.802 19.8-.698 29.1m-33.7-40.7-14.9-80c-3.1-15.6-8.6-20.4-22.699-24.4l-109.101-29.9c-5.5-1.5-9.399-1.5-13.3-1.5-6.3.8-11.8 4.7-18.1 11.8l-53.4 61.9zm-14.9 25.1c-1.5-.8-3.1-.8-4.699-.8h-4.7c-10.3.8-18.9 7.8-21.2 18.9-4 13.3 4 27.399 17.3 31.399s27.4-4.699 31.4-18.1c3.799-13.499-4.701-27.599-18.101-31.399"/></svg>