<svg height="800" width="800" xmlns="http://www.w3.org/2000/svg" viewBox="0 0 203.284 203.284" xml:space="preserve"><path d="M167.593 153.447c0 7.867 6.398 14.263 14.263 14.263s14.263-6.397 14.263-14.263-6.398-14.263-14.263-14.263-14.263 6.396-14.263 14.263m14.263-7.132c3.933 0 7.132 3.2 7.132 7.132s-3.199 7.132-7.132 7.132-7.132-3.2-7.132-7.132 3.199-7.132 7.132-7.132m-16.046-39.224c6.881 0 12.48-5.599 12.48-12.48s-5.599-12.48-12.48-12.48-12.48 5.599-12.48 12.48 5.599 12.48 12.48 12.48m0-17.829a5.355 5.355 0 0 1 5.349 5.349c0 2.949-2.399 5.349-5.349 5.349s-5.349-2.399-5.349-5.349c0-2.949 2.4-5.349 5.349-5.349m-41.007-7.132c5.899 0 10.697-4.799 10.697-10.697 0-5.899-4.798-10.697-10.697-10.697s-10.697 4.799-10.697 10.697c0 5.899 4.798 10.697 10.697 10.697m0-14.263c1.966 0 3.566 1.598 3.566 3.566s-1.6 3.566-3.566 3.566-3.566-1.598-3.566-3.566 1.6-3.566 3.566-3.566m33.875 71.316c6.881 0 12.48-5.599 12.48-12.48s-5.599-12.48-12.48-12.48-12.48 5.599-12.48 12.48 5.6 12.48 12.48 12.48m0-17.829a5.355 5.355 0 0 1 5.349 5.349 5.355 5.355 0 0 1-5.349 5.349 5.355 5.355 0 0 1-5.349-5.349 5.356 5.356 0 0 1 5.349-5.349"/><path d="M143.908 171.276 97.153 53.301a3.563 3.563 0 0 0-5.965-1.072l-7.849 8.713-20.554-34.336c-.726-1.212-2.107-1.863-3.494-1.706a3.56 3.56 0 0 0-2.977 2.504L12.676 171.276H0v7.132h203.284v-7.132zm-123.718-.207L60.802 37.178l18.896 31.566a3.56 3.56 0 0 0 2.714 1.717c1.107.094 2.236-.32 2.995-1.163l7.233-8.027 43.516 109.798z"/></svg>