<svg version="1.0" xmlns="http://www.w3.org/2000/svg" width="170.667" height="170.667" viewBox="0 0 128 128"><path d="M31.4 5.9c-2.6 1.6-3.7 3.4-5.9 10.3-2.2 6.7-3.5 8.9-6.6 11.6-4.5 3.8-5.9 7.9-5.9 17v6.3l3.7-2.6c2.1-1.4 4.3-2.5 5-2.5.9 0 1.3-1.6 1.3-5 0-6.3 1.2-7 12.7-7h8.8l1.6-4.5 1.7-4.5h-15l.6-3.1c.3-1.7 1.2-4.3 1.9-5.8l1.2-2.6 17.4-.3c11-.1 17.8.1 18.5.8 1 1 10.6 1.5 10.6.5 0-.3-.6-2.1-1.4-4-2.5-5.9-5-6.5-27.3-6.5-17.7 0-20.1.2-22.9 1.9"/><path d="M58.7 27c-1.6 1.3-3.4 4.5-4.8 8.8-1.2 3.7-2.4 7.3-2.7 7.9-.3.9 1 1.3 4.5 1.3h4.9l1.8-5.5 1.7-5.5 18.6.2 18.6.3 1.8 5.2 1.8 5.3H85.7c-18 .1-19 .2-15.7 1.6 1.9.8 4.9 2.8 6.5 4.4l3 2.9 16.2.3c11.5.2 16.6.7 17.5 1.6.7.7 1.4 4.5 1.6 8.6.4 6.5.1 7.7-1.7 9.5s-3.3 2.1-11.7 2.1c-5.3 0-9.4.3-9.2.7l1.8 4.5c1.3 3.7 1.6 3.8 6.2 3.8 4.2 0 5 .3 5.8 2.4 2.3 6.1 10.3 7.5 15.1 2.7l2.9-2.9V72c0-16.8-.9-20.4-5.8-24-2.2-1.6-3.8-4.4-5.7-9.9-1.7-4.6-3.8-8.7-5.6-10.4L104 25H82.6c-19.9 0-21.5.1-23.9 2M30.2 40.2c-2.8 2.8-.7 7.8 3.3 7.8s6.1-5 3.3-7.8c-.7-.7-2.1-1.2-3.3-1.2s-2.6.5-3.3 1.2"/><path d="M25.3 54.7c-4 .8-7 4.8-9.8 13.3-2 5.9-3.6 9.1-5.7 10.8C4.5 83.2 4 85.5 4 102.5v15.7l2.9 2.9c1.8 1.7 4 2.9 5.6 2.9 3.9 0 8.4-2.7 9.1-5.5l.6-2.5h22.7l22.6.1 2 3.2c3.4 5.3 10.1 6.1 14.5 1.7 1.8-1.8 2-3.4 2-18.5 0-18-.6-20.6-5.7-24.3-1.9-1.4-3.5-4.5-5.7-10.7-4.6-13.1-4.3-13-27.9-13.2-10.6 0-20.2.1-21.4.4m40 14.6c.9 3 1.7 5.7 1.7 6 0 .4-9.9.7-22 .7s-22-.2-22-.4c0-.3 2-6.2 3.5-10.4.3-.9 5-1.2 18.8-1.2h18.3zm10.1 17.3c2 1.9 2.3 16.3.4 18.2-.9.9-9.1 1.2-31 1.2-34.2 0-31.8.8-31.8-10.2 0-4.1.5-7.1 1.6-8.6C16.1 85 16.3 85 45 85c24.9 0 29.1.2 30.4 1.6"/><path d="M20.5 93.4c-2.3 3.4-.5 6.6 3.6 6.6s6.1-4 3.4-7c-2.4-2.7-5.1-2.5-7 .4M35 95.5v4.5h21v-9H35zm28.2-3.3c-1.5 1.5-1.5 5.1 0 6.6s5.1 1.5 6.6 0c2.8-2.8.7-7.8-3.3-7.8-1.2 0-2.6.5-3.3 1.2M83 61.1c0 .7.5 2.9 1.2 5 1 3.7 1.4 3.9 5 3.9H93V60h-5c-3.1 0-5 .4-5 1.1m18 .9c-1.1 1.1-2 2.4-2 3 0 1.3 3.7 5 5 5s5-3.7 5-5c0-.6-.9-1.9-2-3s-2.4-2-3-2c-.5 0-1.9.9-3 2"/></svg>